<svg version="1.1" id="Layer_1" xmlns="http://www.w3.org/2000/svg" xmlns:xlink="http://www.w3.org/1999/xlink" x="0px" y="0px"
	 width="100%" viewBox="0 0 1024 608" enable-background="new 0 0 1024 608" xml:space="preserve">
<path fill="#000000" opacity="1.000000" stroke="none" 
	d="
M220.557434,321.132141 
	C223.107452,307.378357 225.356812,293.958771 228.191391,280.663910 
	C232.201950,261.853363 236.207092,243.022247 241.003143,224.403046 
	C248.542297,195.134720 255.891800,165.776489 266.894196,137.537842 
	C269.488159,130.880188 272.663788,124.445122 275.670837,117.953514 
	C279.368042,109.972008 286.105621,105.103851 293.588989,101.212532 
	C296.652344,99.619591 297.849854,97.675919 297.831268,94.193764 
	C297.746704,78.348450 295.714905,78.843208 313.977753,72.382950 
	C334.863770,64.994766 356.323730,59.798973 378.151764,56.234268 
	C383.669434,55.333191 389.511810,55.501881 395.089264,56.159775 
	C400.038239,56.743546 403.629974,60.537209 405.047119,65.088715 
	C407.314819,72.372040 411.823944,73.680450 418.717865,72.839203 
	C432.072327,71.209595 445.492493,70.000641 458.917969,69.105797 
	C470.871826,68.309044 482.866882,67.944679 494.848785,67.797005 
	C512.843140,67.575241 530.858582,67.215508 548.834656,67.819061 
	C570.592896,68.549576 592.409485,68.501610 614.067383,71.468300 
	C621.791809,72.526390 629.655457,72.532326 637.431885,73.268852 
	C639.825073,73.495529 640.717590,72.409386 641.535461,70.594475 
	C642.626221,68.173759 643.714294,65.736763 645.027039,63.434181 
	C647.982910,58.249825 652.233459,55.711529 658.509949,55.774303 
	C677.333557,55.962578 695.265076,60.890411 713.210815,65.647247 
	C724.117920,68.538368 734.934326,71.825279 745.320801,76.400421 
	C749.397827,78.196327 751.785461,81.092422 751.164795,85.236023 
	C749.703186,94.992805 752.875732,101.371071 762.144653,105.668404 
	C770.307800,109.453079 773.577881,117.967133 777.139832,125.660408 
	C785.266663,143.212891 790.799683,161.701904 796.192505,180.221207 
	C806.220154,214.657516 814.294250,249.577728 821.791870,284.633850 
	C827.738586,312.438629 832.432861,340.401154 831.280334,369.011841 
	C830.530579,387.625061 827.402222,405.731964 819.226685,422.648224 
	C806.821045,448.317108 785.645569,461.804016 758.052979,466.239990 
	C753.462036,466.978027 748.913879,468.007263 744.309143,468.628937 
	C732.412048,470.235199 723.302917,465.099426 715.966064,456.286591 
	C705.754944,444.021210 700.309204,429.246063 694.933289,414.564789 
	C687.445435,394.115967 680.577271,373.440887 673.350403,352.895538 
	C669.547485,342.084106 652.338745,329.785095 640.799011,329.373474 
	C634.105408,329.134735 627.640076,329.820618 621.110657,331.744446 
	C611.814514,334.483459 601.998047,334.624634 592.407349,334.769806 
	C561.925781,335.231018 531.440247,337.080719 500.961670,335.855804 
	C478.676117,334.960144 456.317352,335.829102 434.105560,333.243530 
	C431.488037,332.938843 428.908966,332.136444 426.366333,331.381836 
	C404.535828,324.902740 390.670166,333.066254 378.440552,347.891632 
	C374.843842,352.251709 373.721893,358.161530 371.948853,363.500824 
	C364.507507,385.909668 357.403870,408.440369 348.235229,430.223480 
	C342.850250,443.017181 336.825012,455.595276 324.932007,463.814941 
	C318.152588,468.500427 310.658295,470.237579 302.186035,468.157959 
	C293.663116,466.065887 284.876740,465.294708 276.385559,462.666107 
	C251.551376,454.978058 235.530930,438.277069 226.607758,414.488068 
	C217.680496,390.688232 216.460541,365.944550 218.521820,340.811249 
	C219.051285,334.355530 220.309525,327.994720 220.557434,321.132141 
M288.635437,117.147430 
	C286.177490,120.108429 284.106537,123.327011 282.473358,126.803627 
	C274.951996,142.814819 269.582275,159.633987 264.634918,176.540863 
	C255.878830,206.463608 248.364349,236.716568 241.615875,267.166626 
	C237.597733,285.296997 233.410980,303.425079 230.721970,321.765137 
	C227.830780,341.484406 226.920471,361.407990 229.142487,381.404083 
	C230.647202,394.945221 233.951111,407.855255 240.045181,419.978149 
	C248.498993,436.795319 262.145752,447.540955 279.964844,453.239716 
	C283.697754,454.433533 285.982056,453.509216 287.217560,449.665924 
	C288.487366,445.715729 290.124207,441.885162 291.486847,437.962799 
	C309.289246,386.718475 328.226807,335.913544 350.868103,286.575287 
	C358.958374,268.945526 368.520508,252.230286 383.283051,239.046204 
	C388.746857,234.166626 393.394073,228.453629 397.966217,222.711044 
	C405.680298,213.022278 410.924683,202.137756 409.633362,189.672974 
	C408.356812,177.350632 405.325500,165.213013 403.133057,152.981979 
	C399.393372,132.119400 395.639069,111.258873 392.067627,90.367279 
	C391.478577,86.921646 390.236511,86.079842 386.761139,86.525841 
	C368.118591,88.918228 349.686066,92.447159 331.615814,97.503036 
	C316.562683,101.714752 301.580353,106.457359 288.635437,117.147430 
M745.794922,403.893890 
	C751.295715,419.414001 756.877991,434.906097 762.234192,450.475983 
	C763.420410,453.924164 765.079041,454.782501 768.493408,453.680298 
	C784.593689,448.482605 797.803345,439.559998 806.568054,424.744110 
	C814.596741,411.172455 818.402405,396.443634 820.052673,380.788025 
	C821.916748,363.102905 821.326233,345.489990 819.293213,328.021240 
	C816.999573,308.312988 812.455139,288.925140 808.099976,269.540314 
	C802.501587,244.622086 796.685852,219.765625 789.803101,195.167801 
	C784.160583,175.002518 778.071411,154.996994 770.689148,135.367447 
	C765.796692,122.358406 758.055298,112.838661 744.979431,107.262489 
	C718.072327,95.787956 689.718079,90.510544 661.039062,86.352402 
	C658.752991,86.020950 657.644409,87.004059 657.265991,89.222641 
	C654.979004,102.631882 652.739502,116.050232 650.308105,129.433563 
	C647.549744,144.616516 644.870605,159.821991 641.664734,174.913101 
	C638.830322,188.255844 638.010376,201.167877 645.115662,213.587173 
	C650.814880,223.548721 658.654297,231.685425 666.553406,239.820953 
	C674.092834,247.585999 681.619385,255.314896 687.009460,264.910309 
	C700.420044,288.784058 710.859680,313.995483 720.897583,339.382202 
	C729.277039,360.574493 737.293762,381.910248 745.794922,403.893890 
M642.795105,84.711281 
	C635.894958,82.494095 628.651672,82.913757 621.583496,81.985016 
	C602.753113,79.510765 583.731506,79.844986 564.830933,78.338188 
	C561.069519,78.038315 557.256165,77.770531 553.738098,78.400009 
	C553.738098,84.423424 553.528259,90.052872 553.777710,95.661896 
	C554.501770,111.939980 555.387634,128.211075 556.263123,144.482056 
	C556.463257,148.201965 555.486206,151.370239 552.681030,153.920258 
	C546.388367,159.640717 534.842163,160.097946 528.066467,154.869400 
	C522.811096,150.814026 522.388855,144.270859 527.274353,139.744263 
	C530.812988,136.465561 535.104248,134.997375 539.979248,134.677078 
	C543.490479,134.446396 546.664429,136.327911 550.214233,136.014191 
	C552.031860,125.785706 549.290894,115.890289 549.673767,105.934578 
	C549.865784,100.941322 548.820557,100.354347 544.012390,102.313408 
	C533.528076,106.585175 523.116943,111.036484 512.643738,115.335960 
	C509.415314,116.661285 508.292267,118.679535 508.555847,122.303375 
	C509.605743,136.736786 510.196167,151.203232 511.196259,165.640839 
	C511.682251,172.656631 509.087799,177.680176 502.695648,180.501144 
	C495.754089,183.564575 488.942200,183.037262 482.904175,178.355591 
	C477.782379,174.384293 477.615326,168.548828 482.313416,164.113983 
	C487.427307,159.286667 493.572479,157.976456 500.389984,159.553299 
	C501.930298,159.909561 503.423523,161.157364 505.149689,159.940948 
	C506.091888,158.244675 505.764069,156.364700 505.683502,154.580795 
	C504.940338,138.126953 504.179962,121.673424 503.301392,105.226372 
	C502.926819,98.213394 504.056122,95.903061 510.361206,93.180664 
	C520.145325,88.956070 529.992920,84.878517 539.794250,80.693352 
	C540.984192,80.185226 542.553711,80.036621 543.330811,78.082794 
	C541.371521,78.082794 539.881958,78.087296 538.392395,78.082138 
	C509.262665,77.981239 480.152954,78.129745 451.054382,80.097626 
	C437.781555,80.995247 424.596863,82.794647 411.298492,83.356117 
	C405.344086,83.607513 404.827362,84.798706 405.872040,90.512375 
	C408.346375,104.045364 410.638000,117.611687 413.092499,131.148392 
	C415.933746,146.818039 418.518433,162.535339 422.236908,178.039246 
	C424.712524,188.360992 431.407959,193.764359 441.506287,195.711487 
	C453.043427,197.936020 464.777802,197.191879 476.357269,197.418579 
	C517.983276,198.233582 559.631836,198.274399 601.254089,196.677597 
	C615.561523,196.128708 624.511963,189.531311 627.473694,177.209747 
	C629.489197,168.824600 631.049438,160.323807 632.615662,151.838272 
	C635.531311,136.042267 638.473328,120.247368 641.050171,104.394447 
	C642.077698,98.072769 644.043213,91.817108 642.795105,84.711281 
M587.249207,244.707733 
	C576.234497,254.053802 572.336060,266.155334 574.617371,280.044647 
	C576.909302,293.998718 589.004883,305.462128 603.431091,308.465942 
	C617.301270,311.354034 632.264954,305.102173 640.349365,293.041443 
	C648.740295,280.523407 648.774902,265.106689 640.456604,252.759048 
	C630.161987,237.477753 607.424133,229.805389 587.249207,244.707733 
M439.741089,236.712372 
	C435.762695,236.201645 432.238251,237.962006 428.634521,239.093826 
	C405.652435,246.311890 397.010101,278.197052 413.118439,296.111481 
	C424.813538,309.117859 443.071625,312.807648 457.564575,305.093597 
	C472.865662,296.949463 479.966827,280.776337 475.839813,263.471222 
	C472.131592,247.922180 456.000702,235.698868 439.741089,236.712372 
M718.020447,442.102112 
	C718.830566,442.765289 718.849731,444.206543 720.621338,444.481812 
	C714.451782,430.251343 708.404053,416.301849 702.356262,402.352356 
	C706.072876,415.997467 710.776062,429.220886 718.020447,442.102112 
M341.861389,418.418121 
	C343.153534,414.897400 344.445709,411.376678 345.737854,407.855927 
	C345.453735,407.745972 345.169647,407.636017 344.885559,407.526062 
	C340.011292,418.758636 335.137054,429.991211 330.262787,441.223816 
	C335.633881,434.604431 338.425323,426.783356 341.861389,418.418121 
z"/>
<path fill="#000000" opacity="1.000000" stroke="none" 
	d="
M652.169434,553.662354 
	C652.165710,556.540649 650.981628,557.842896 648.558167,557.989380 
	C648.225586,558.009460 647.893250,558.047791 647.560547,558.051575 
	C631.468079,558.235535 634.086060,559.094849 634.014648,545.512329 
	C633.886658,521.179993 633.924744,496.846680 633.929932,472.513763 
	C633.931458,465.317688 634.286865,465.005219 641.615845,464.955933 
	C646.782166,464.921143 651.955994,465.110077 657.113220,464.889191 
	C661.122192,464.717468 663.031311,466.068420 663.830017,470.267792 
	C666.814026,485.958405 670.171021,501.578400 673.435181,517.215088 
	C673.939209,519.629639 674.227844,522.137390 676.222778,525.389526 
	C678.165344,516.277405 679.946472,508.088867 681.650940,499.884399 
	C683.749878,489.781799 685.836182,479.675964 687.817139,469.549896 
	C688.429443,466.420258 690.047058,464.932739 693.261414,464.960907 
	C699.593811,465.016418 705.927551,464.989288 712.260132,464.931213 
	C715.563660,464.900940 717.136047,466.350616 717.131775,469.741119 
	C717.096802,497.573853 717.093323,525.406738 717.141907,553.239380 
	C717.147827,556.622742 715.681152,558.073669 712.341125,558.074463 
	C696.990723,558.078003 699.122314,559.375916 699.051697,545.761597 
	C698.960999,528.273926 699.029663,510.785461 699.029663,492.508759 
	C697.332336,494.506378 697.443176,496.275757 697.072144,497.901093 
	C692.885254,516.241577 688.554443,534.550171 684.534729,552.926941 
	C683.686340,556.805359 681.920776,558.409058 678.101135,558.097656 
	C676.777039,557.989746 675.425964,557.986816 674.104614,558.115051 
	C669.895020,558.523376 667.816223,556.773560 666.895508,552.511597 
	C662.853149,533.800659 658.556763,515.144287 654.283936,496.483826 
	C653.935303,494.961151 654.236206,493.150635 652.178772,491.386444 
	C652.178772,512.388672 652.178772,532.792480 652.169434,553.662354 
z"/>
<path fill="#000000" opacity="1.000000" stroke="none" 
	d="
M481.256287,486.962250 
	C483.884491,486.949036 486.052765,487.011292 488.214691,486.921570 
	C491.595978,486.781281 494.292755,487.487305 494.301270,492.280731 
	C499.940674,488.534119 505.092438,485.319397 511.658875,485.675995 
	C518.318665,486.037598 523.273376,489.171936 527.454285,494.719025 
	C531.000061,491.233521 534.279297,488.055237 538.939697,486.670868 
	C550.525757,483.229279 560.105103,488.900482 562.301636,500.794678 
	C563.186646,505.586945 562.911987,510.423615 562.917175,515.247742 
	C562.930603,527.573975 562.807495,539.901184 562.943542,552.225769 
	C562.989563,556.398865 561.652344,558.236023 557.190369,558.154968 
	C541.952881,557.878052 544.019409,559.510315 543.898743,545.242615 
	C543.801514,533.749878 543.880554,522.255798 543.836487,510.762451 
	C543.810608,504.010681 542.080566,501.460144 537.589172,501.323151 
	C532.332825,501.162842 529.218567,504.349823 529.119873,510.804596 
	C528.916138,524.127258 529.014282,537.454407 528.965149,550.779602 
	C528.939575,557.734497 528.604370,558.097351 521.579041,558.065247 
	C508.222107,558.004211 509.872253,559.405151 509.793793,546.367981 
	C509.721649,534.375183 509.801727,522.381531 509.742767,510.388641 
	C509.710754,503.874207 507.777130,501.335602 503.080963,501.304443 
	C498.229004,501.272247 495.358124,504.267822 495.036224,510.119568 
	C494.258636,524.254150 494.072388,538.405762 494.756592,552.544678 
	C494.961975,556.789001 493.343414,558.180725 489.316620,558.131714 
	C473.631683,557.940979 475.974579,559.661316 475.877533,544.983582 
	C475.761871,527.494202 475.883759,510.003113 475.739166,492.514160 
	C475.708405,488.790436 476.826111,486.742859 481.256287,486.962250 
z"/>
<path fill="#000000" opacity="1.000000" stroke="none" 
	d="
M389.156555,493.362946 
	C384.930817,493.839966 382.660614,492.550354 382.247711,488.453217 
	C382.015015,486.144318 381.151520,483.926758 379.751862,481.989197 
	C376.016296,476.818207 369.122589,476.842438 365.404510,482.023346 
	C362.971375,485.413696 362.298065,489.371155 361.915680,493.349304 
	C360.655243,506.463165 360.447968,519.580872 362.280670,532.671204 
	C362.395416,533.490540 362.596832,534.303345 362.823303,535.100586 
	C364.771912,541.960449 368.088257,545.166138 373.010315,544.972595 
	C378.042633,544.774841 382.473419,540.206665 383.587097,533.940552 
	C383.847321,532.476196 383.858429,530.957336 383.878448,529.462158 
	C383.974487,522.282166 383.961121,522.074585 376.974548,522.090454 
	C372.779053,522.099976 371.502167,520.419800 371.591522,516.410156 
	C371.840179,505.249054 370.838989,506.735809 381.151764,506.627747 
	C386.813995,506.568420 392.480286,506.733887 398.139221,506.586304 
	C401.480194,506.499207 403.040588,507.695587 403.013031,511.178345 
	C402.902313,525.168152 402.867188,539.159119 402.899994,553.149353 
	C402.908478,556.771912 401.309052,558.506226 397.751312,558.065979 
	C393.615601,557.554382 387.481781,560.648315 387.623108,551.721069 
	C381.433929,557.508789 374.711670,559.574158 367.069244,559.326843 
	C356.063904,558.970581 348.274963,553.787964 344.808197,543.273987 
	C340.081238,528.938110 340.389923,514.074463 341.265869,499.251709 
	C341.678284,492.272797 342.738342,485.361206 345.543335,478.826080 
	C349.941345,468.579407 357.847534,463.443939 368.777100,462.715088 
	C371.595215,462.527130 374.447571,462.553497 377.267365,462.738464 
	C394.358398,463.859741 400.836029,475.676575 401.720337,489.649567 
	C401.876099,492.110657 400.619690,493.343170 398.119446,493.327423 
	C395.288269,493.309570 392.456757,493.348938 389.156555,493.362946 
z"/>
<path fill="#000000" opacity="1.000000" stroke="none" 
	d="
M103.539284,558.953796 
	C90.585358,556.650574 83.296028,548.841370 81.005737,536.759460 
	C77.850777,520.116211 77.682991,503.207703 80.874931,486.622620 
	C85.140335,464.459961 110.470383,454.629242 129.393433,467.249420 
	C138.079819,473.042511 140.709717,482.158722 141.906738,491.781311 
	C143.599304,505.387360 143.550552,519.021423 141.521957,532.603882 
	C138.736237,551.255554 129.318069,559.318359 110.457291,559.284607 
	C108.296844,559.280701 106.136681,559.120422 103.539284,558.953796 
M113.008362,544.870850 
	C118.769241,543.894348 120.874100,539.629822 121.684715,534.634277 
	C123.989014,520.433838 123.394646,506.164642 122.151459,491.913849 
	C121.951164,489.617889 121.321365,487.332428 120.664078,485.108948 
	C119.326141,480.582916 116.222755,478.308044 111.469612,478.179077 
	C105.226135,478.009674 101.539330,480.819214 100.452408,487.912659 
	C98.024475,503.757812 98.109871,519.686890 100.432724,535.537964 
	C101.455330,542.516235 104.733170,544.804382 113.008362,544.870850 
z"/>
<path fill="#000000" opacity="1.000000" stroke="none" 
	d="
M170.311646,488.223358 
	C170.933533,489.567841 171.318024,490.624664 171.930634,492.308563 
	C177.119308,487.017792 183.131485,484.624512 190.167694,485.986938 
	C199.283936,487.752136 204.224258,493.919189 206.189728,502.519348 
	C208.967438,514.673523 208.856079,526.968567 206.987122,539.257812 
	C204.265961,557.150635 188.998291,565.361328 171.905106,554.020203 
	C171.905106,560.955811 171.699356,567.359192 171.973663,573.741943 
	C172.173950,578.402588 170.656448,580.316833 165.736725,580.206482 
	C150.571014,579.866211 152.897125,581.450623 152.836319,567.505249 
	C152.728790,542.844543 152.781952,518.183044 152.792160,493.521881 
	C152.794708,487.369171 153.161530,486.906006 159.275620,487.004852 
	C162.878052,487.063049 166.613449,486.086731 170.311646,488.223358 
M189.072098,527.414795 
	C189.099930,520.924011 189.343231,514.424377 187.812500,508.028534 
	C186.930679,504.344055 185.358307,501.450195 181.015442,501.298706 
	C176.608307,501.144958 174.152634,503.606873 173.194489,507.566071 
	C171.739700,513.577332 171.283020,519.761963 171.663864,525.895813 
	C171.960205,530.668701 171.739136,535.581116 173.645813,540.174500 
	C175.019943,543.484985 177.319580,545.128418 180.985062,544.973633 
	C184.526382,544.823975 186.456558,542.801941 187.480423,539.718567 
	C188.698700,536.049561 189.007599,532.227478 189.072098,527.414795 
z"/>
<path fill="#000000" opacity="1.000000" stroke="none" 
	d="
M782.724731,497.648010 
	C782.615295,516.098694 782.367920,534.095276 782.614746,552.085083 
	C782.680237,556.862305 781.087524,558.463318 776.636963,558.119873 
	C774.648987,557.966431 772.627136,557.954590 770.641968,558.125793 
	C766.582764,558.475891 764.037781,557.264648 764.762878,551.702271 
	C759.428345,556.320068 754.254944,559.278320 747.796692,559.297913 
	C736.684265,559.331543 729.935669,554.285156 729.459473,543.288513 
	C728.703247,525.824890 728.262451,508.257233 729.387817,490.843414 
	C729.894958,482.996490 738.138855,488.271057 742.712158,487.076416 
	C745.993469,486.219238 748.012207,488.027863 747.982666,491.781250 
	C747.889526,503.612976 747.905579,515.445618 747.902405,527.277954 
	C747.901428,530.943726 747.936096,534.610413 748.023743,538.275024 
	C748.103577,541.610352 749.437378,544.250549 752.962097,544.822571 
	C756.534546,545.402344 760.010620,545.106873 762.150635,541.450012 
	C763.639221,538.906372 763.939331,536.135620 763.929382,533.259155 
	C763.882568,519.760315 764.017456,506.258698 763.773499,492.763763 
	C763.693359,488.332153 765.376709,486.631256 769.605042,486.959137 
	C770.764404,487.049011 771.937134,486.965973 773.103699,486.964233 
	C783.304016,486.948883 783.304016,486.949005 782.724731,497.648010 
z"/>
<path fill="#000000" opacity="1.000000" stroke="none" 
	d="
M311.793793,512.280823 
	C311.703552,510.487610 311.739075,509.138367 311.518463,507.832367 
	C310.875244,504.024292 309.184723,501.302002 304.750824,501.261810 
	C300.323730,501.221619 297.393280,503.102112 296.286835,507.443085 
	C295.417023,510.855743 295.352753,514.356445 295.366913,517.867920 
	C295.414673,529.698242 295.320312,541.529846 295.460083,553.358826 
	C295.495605,556.364990 294.926483,558.144043 291.462921,558.114685 
	C273.999542,557.967041 277.018127,559.924011 276.885773,544.643555 
	C276.738586,527.647034 276.808044,510.648590 276.794312,493.650970 
	C276.789154,487.261078 277.049469,487.016510 283.624756,486.946442 
	C285.291046,486.928711 286.959900,486.991547 288.623596,486.921967 
	C292.226562,486.771271 295.505554,487.041351 295.470398,492.294525 
	C299.291962,490.608643 301.908783,487.962219 305.422089,486.822937 
	C319.169983,482.364685 330.195984,489.920380 330.329407,504.300171 
	C330.480927,520.629822 330.309998,536.962524 330.464722,553.292114 
	C330.497498,556.751465 329.296814,558.141479 325.883606,558.120178 
	C308.745331,558.013123 312.058136,559.745605 311.859497,545.239746 
	C311.711212,534.409790 311.812408,523.576355 311.793793,512.280823 
z"/>
<path fill="#000000" opacity="1.000000" stroke="none" 
	d="
M430.626953,516.505371 
	C434.366882,515.418579 437.738770,514.494507 441.070679,513.443604 
	C445.419617,512.071899 446.334473,508.759033 445.750092,504.719391 
	C445.178650,500.768890 442.734894,499.029144 438.863312,498.920929 
	C434.514801,498.799438 431.617676,500.779968 431.266846,505.101135 
	C430.900116,509.618256 428.522980,510.716705 424.611938,510.281219 
	C423.953796,510.207916 423.280853,510.266937 422.614746,510.265564 
	C413.229248,510.246094 411.716370,507.965637 415.023590,498.905304 
	C417.333893,492.576141 422.045685,488.957764 428.306763,487.131561 
	C436.214142,484.825165 444.154236,485.149048 451.935822,487.541504 
	C460.178253,490.075653 464.093445,496.006165 464.208252,505.990143 
	C464.349976,518.311523 464.226685,530.635803 464.250641,542.958801 
	C464.257416,546.448853 464.095978,549.965210 465.171112,553.363708 
	C466.176331,556.541260 465.118958,558.155518 461.690063,558.092590 
	C459.526276,558.052856 457.348145,557.964661 455.198639,558.152344 
	C451.019806,558.517212 447.546082,557.791016 446.268402,552.502686 
	C440.651703,558.287048 434.062836,559.790405 426.813843,559.261414 
	C423.173523,558.995728 420.047913,557.545166 417.350922,555.197327 
	C409.415741,548.289429 407.773285,524.259827 423.211731,519.145569 
	C425.575256,518.362610 427.898987,517.459290 430.626953,516.505371 
M431.743011,544.683838 
	C436.461029,547.642029 442.441772,546.410461 444.722321,541.379211 
	C447.014709,536.321716 446.552155,530.912354 445.260101,525.610229 
	C430.971313,527.447144 426.595245,533.485413 431.743011,544.683838 
z"/>
<path fill="#000000" opacity="1.000000" stroke="none" 
	d="
M250.001266,525.936279 
	C246.004471,525.926453 242.500015,526.041748 239.009140,525.874207 
	C235.034729,525.683411 233.617874,527.555603 233.892487,531.318787 
	C234.146942,534.805420 234.079285,538.327393 235.542877,541.612549 
	C236.774521,544.377075 238.665924,546.474243 241.861588,546.537476 
	C245.193893,546.603394 248.217010,544.883484 248.662018,541.733398 
	C249.828842,533.473755 255.227676,533.266418 261.645325,533.614746 
	C268.150909,533.967834 268.493225,534.116943 267.160370,540.588135 
	C264.265472,554.643005 251.931732,561.939331 236.097549,558.964172 
	C224.459457,556.777405 218.072388,550.748535 216.007553,539.070984 
	C213.930298,527.323059 214.100647,515.478699 216.894043,503.852936 
	C219.970535,491.048889 230.830963,484.552246 246.301987,485.759125 
	C258.496826,486.710480 267.038208,495.294312 268.183624,507.830292 
	C268.561890,511.970093 268.731262,516.128845 269.093506,520.270386 
	C269.457336,524.430725 267.421906,525.970703 263.493042,525.892761 
	C259.163910,525.806824 254.830917,525.913696 250.001266,525.936279 
M248.719452,513.784302 
	C251.209488,510.928772 250.331863,503.420685 247.071411,500.588776 
	C244.396423,498.265442 241.299316,497.755249 238.366318,499.853485 
	C234.404800,502.687592 233.616562,507.028351 234.279709,511.463562 
	C234.825607,515.114441 238.144028,513.757690 240.405319,513.928528 
	C242.882431,514.115662 245.387878,513.927734 248.719452,513.784302 
z"/>
<path fill="#000000" opacity="1.000000" stroke="none" 
	d="
M605.858032,540.682983 
	C607.112549,538.217041 606.215942,534.627136 609.258667,534.074036 
	C613.649841,533.275879 618.254272,533.103577 622.627686,534.211548 
	C624.908936,534.789429 624.161499,537.259705 623.957336,538.993652 
	C622.619263,550.355713 614.974854,557.782043 603.289734,559.171326 
	C583.929810,561.473206 572.065125,551.296631 571.751709,531.842896 
	C571.612732,523.213684 570.798340,514.523071 572.865417,505.976685 
	C577.277527,487.734375 599.333862,479.239777 614.938049,489.920319 
	C622.362732,495.002197 624.611450,503.015076 624.963989,511.315308 
	C625.693604,528.494385 626.964844,525.604187 611.808228,525.907532 
	C606.149536,526.020752 600.484497,525.999939 594.826111,525.872864 
	C591.409119,525.796143 589.805542,527.257629 590.149597,530.638977 
	C590.435181,533.444519 590.774902,536.254883 591.301392,539.023071 
	C591.999329,542.692322 593.792358,545.812073 597.745605,546.411743 
	C601.745422,547.018555 604.317627,544.706787 605.858032,540.682983 
M590.325867,510.570099 
	C590.118774,513.293823 591.801147,514.183777 594.051575,513.935181 
	C598.184326,513.478699 602.638916,515.526062 606.410583,512.456665 
	C606.803467,512.136902 606.803040,511.217407 606.819336,510.571991 
	C606.877991,508.248199 606.693970,505.972656 605.881836,503.735352 
	C604.729431,500.560760 602.454041,498.839996 599.230774,498.597626 
	C595.889343,498.346313 593.453125,500.148468 592.174988,503.096649 
	C591.268982,505.186462 590.952820,507.532013 590.325867,510.570099 
z"/>
<path fill="#000000" opacity="1.000000" stroke="none" 
	d="
M823.418335,515.517578 
	C829.864807,517.848450 836.427612,519.406860 840.017517,525.531494 
	C847.890686,538.963806 841.057007,554.686218 825.897400,558.230347 
	C817.581238,560.174561 809.356812,559.799255 801.407837,556.630981 
	C793.891846,553.635376 789.156738,544.431885 790.814026,536.560791 
	C790.915771,536.077393 790.923706,535.387817 791.238403,535.163940 
	C795.449951,532.168091 800.201477,534.095093 804.706543,533.849487 
	C807.706299,533.685974 807.909119,536.219482 808.036194,538.431641 
	C808.262634,542.375610 810.210999,544.981445 813.942261,546.221069 
	C818.069946,547.592468 823.035278,545.441528 824.397766,541.738586 
	C825.884705,537.697449 824.250671,533.946411 819.778564,532.054382 
	C813.656494,529.464294 807.169006,527.632080 801.286560,524.603943 
	C789.794617,518.688232 787.475952,502.271729 796.426392,492.954987 
	C804.604370,484.442230 825.519348,483.015259 834.586792,490.526489 
	C839.521057,494.613800 841.549194,500.138977 841.259216,506.506683 
	C841.222290,507.317291 841.213013,508.536224 840.725586,508.855438 
	C836.483459,511.633759 831.735779,510.017578 827.206726,510.065277 
	C824.353149,510.095306 824.068176,507.549988 823.899170,505.329468 
	C823.561035,500.888489 821.004395,498.577728 816.747559,498.673706 
	C813.441040,498.748291 810.470764,500.194366 809.557922,503.795258 
	C808.598816,507.578613 810.300354,510.373138 813.700867,511.918579 
	C816.719971,513.290649 819.921631,514.261047 823.418335,515.517578 
z"/>
<path fill="#000000" opacity="1.000000" stroke="none" 
	d="
M910.360535,545.433289 
	C913.623962,542.364624 914.489441,538.653503 914.759277,534.775452 
	C914.957031,531.932556 916.185059,530.579651 919.136169,530.591980 
	C922.460876,530.605835 925.785889,530.245361 929.112549,530.209290 
	C932.077026,530.177124 933.125977,531.853516 933.009888,534.734192 
	C932.451233,548.596069 924.115967,557.810974 910.756104,559.203430 
	C893.702332,560.980835 883.941040,554.923645 880.558044,540.132935 
	C877.879150,528.420837 877.982666,516.634338 880.989014,504.988525 
	C884.531372,491.266296 895.271057,484.439240 910.736877,485.779633 
	C923.216492,486.861237 931.532349,495.567688 932.913757,508.852234 
	C933.281555,512.389038 932.154297,514.337891 928.353638,514.209412 
	C926.689270,514.153137 925.001892,514.040649 923.358582,514.236328 
	C917.979675,514.876892 914.368286,513.757751 914.120239,507.235168 
	C913.972046,503.339203 911.909058,500.159149 907.270264,500.107330 
	C902.466492,500.053680 899.695251,502.885315 898.988281,507.236938 
	C897.244507,517.970703 897.002136,528.817627 899.052429,539.513306 
	C900.280396,545.919373 903.952209,547.603516 910.360535,545.433289 
z"/>
<path fill="#000000" opacity="1.000000" stroke="none" 
	d="
M851.101318,555.456360 
	C850.958191,534.199585 850.969971,513.387268 850.837402,492.575897 
	C850.811890,488.581543 852.255066,486.859039 856.383240,486.904785 
	C872.202332,487.079926 870.066895,485.428589 870.148438,500.339447 
	C870.242249,517.489319 870.032288,534.641479 870.216370,551.789856 
	C870.267578,556.563171 868.537048,558.787476 863.827454,558.050415 
	C859.613892,557.390930 854.795044,560.171143 851.101318,555.456360 
z"/>
<path fill="#000000" opacity="1.000000" stroke="none" 
	d="
M860.985535,480.376099 
	C850.716125,480.373657 850.716187,480.373657 850.865723,470.684326 
	C850.964905,464.260101 851.350281,463.864685 857.568420,463.813812 
	C858.230225,463.808411 858.892029,463.811676 859.553833,463.809143 
	C870.417847,463.767395 870.263367,463.766815 870.229919,474.684448 
	C870.216797,478.946228 868.789917,480.900238 864.446899,480.395905 
	C863.467285,480.282135 862.463440,480.377319 860.985535,480.376099 
z"/>
<path fill="#000000" opacity="1.000000" stroke="none" 
	d="
M352.131958,222.938736 
	C352.383728,228.294113 349.799591,230.367279 345.141876,230.235504 
	C338.826019,230.056808 332.656219,231.817841 326.300385,231.461121 
	C322.839752,231.266876 321.399445,229.963760 320.770721,226.538879 
	C319.801636,221.259995 319.204407,215.912994 319.881653,210.699829 
	C320.968140,202.336334 326.309814,196.017334 331.673340,189.910202 
	C333.046692,188.346466 334.871796,189.006485 336.118835,190.238403 
	C343.213928,197.247498 352.013367,203.207306 351.177979,215.112534 
	C351.007690,217.539505 351.776489,220.032379 352.131958,222.938736 
z"/>
<path fill="#000000" opacity="1.000000" stroke="none" 
	d="
M341.698029,177.721909 
	C345.671936,174.156097 349.392792,170.836914 353.152649,167.562485 
	C355.487305,165.529221 358.157806,164.611832 361.338135,164.466354 
	C365.470062,164.277313 369.561829,163.325333 373.694427,163.004211 
	C377.783905,162.686447 380.474792,164.283234 380.390778,168.936615 
	C380.276611,175.259552 382.678680,181.323425 382.160767,187.746506 
	C381.847473,191.632065 380.623444,193.462418 376.536102,194.476074 
	C363.194550,197.784714 352.082306,193.787674 341.934601,185.375015 
	C338.987427,182.931732 338.504547,180.651306 341.698029,177.721909 
z"/>
<path fill="#000000" opacity="1.000000" stroke="none" 
	d="
M316.781494,135.291534 
	C324.426910,134.533508 331.703186,134.104706 338.949127,133.374710 
	C342.828308,132.983887 344.349243,134.901855 345.093689,138.262253 
	C348.038757,151.555908 344.773621,163.141190 335.767334,173.264114 
	C333.307709,176.028687 331.059235,176.738342 328.365448,173.653229 
	C325.530853,170.406815 322.609924,167.234894 319.692108,164.062256 
	C316.022278,160.071838 314.246582,155.497131 314.655823,149.981964 
	C314.836823,147.542572 314.404144,145.022461 313.989777,142.583237 
	C313.502258,139.713669 313.987152,137.312546 316.781494,135.291534 
z"/>
<path fill="#000000" opacity="1.000000" stroke="none" 
	d="
M318.251709,175.674713 
	C328.430023,182.552078 327.728241,183.345993 319.486542,191.863586 
	C311.283356,200.341400 301.357910,200.483826 291.201874,201.300766 
	C287.680176,201.584045 285.351959,199.606674 285.016815,196.130890 
	C284.395050,189.682556 284.152527,183.198517 283.680298,176.734573 
	C283.395630,172.837692 285.177307,170.806458 288.991455,170.348938 
	C299.165222,169.128555 309.297028,168.097717 318.251709,175.674713 
z"/>
<path fill="#000000" opacity="1.000000" stroke="none" 
	d="
M372.405426,105.110001 
	C379.517670,102.391090 383.398254,104.236725 384.933411,111.031937 
	C386.166229,116.488937 387.119965,122.017433 387.974030,127.548706 
	C388.589203,131.532959 385.647888,135.517029 381.517395,136.305450 
	C377.489532,137.074295 373.903412,135.765152 372.828522,131.646393 
	C371.129608,125.136314 369.988190,118.465660 368.921814,111.813126 
	C368.504486,109.209709 370.229340,107.121483 372.405426,105.110001 
z"/>
<path fill="#000000" opacity="1.000000" stroke="none" 
	d="
M732.424255,242.827576 
	C719.041748,247.589615 707.891235,242.893600 703.029541,230.757843 
	C698.848511,220.321014 704.899780,207.469604 715.852539,203.524796 
	C727.033875,199.497665 740.026855,205.665207 743.237427,216.523834 
	C746.522400,227.634659 743.171997,236.011505 732.424255,242.827576 
z"/>
<path fill="#000000" opacity="1.000000" stroke="none" 
	d="
M731.440063,153.178833 
	C725.410034,161.865250 716.097717,165.425552 706.955017,162.796066 
	C699.288696,160.591187 692.461853,152.378540 691.874695,144.654404 
	C691.144836,135.053482 695.955383,126.671997 704.411743,122.810707 
	C712.547668,119.095757 722.322510,120.982079 728.699951,127.497841 
	C735.095215,134.031769 736.229736,143.852295 731.440063,153.178833 
z"/>
<path fill="#000000" opacity="1.000000" stroke="none" 
	d="
M671.524292,167.127808 
	C681.463562,164.442657 689.386963,167.248764 695.261658,174.937469 
	C700.853394,182.255859 700.890259,190.335083 696.468262,198.291382 
	C691.991638,206.345947 683.549255,209.860519 673.423462,208.235779 
	C665.758423,207.005875 658.387451,199.450912 656.989014,191.391159 
	C655.507629,182.852951 659.440430,173.985748 666.734375,169.543533 
	C668.146973,168.683212 669.666931,167.999191 671.524292,167.127808 
z"/>
<path fill="#000000" opacity="1.000000" stroke="none" 
	d="
M759.815674,158.941330 
	C768.664307,161.422684 774.158203,166.911758 775.770935,175.470978 
	C777.320129,183.693207 775.009888,190.993347 768.157715,196.357315 
	C760.951477,201.998428 752.798706,202.052597 745.120300,198.440689 
	C737.317932,194.770416 733.415955,187.594238 733.683105,178.929916 
	C733.969971,169.624283 739.852295,162.168350 748.267395,159.451141 
	C751.894897,158.279831 755.596680,157.018478 759.815674,158.941330 
z"/>
<path fill="#000000" opacity="1.000000" stroke="none" 
	d="
M660.990601,127.018417 
	C661.935242,121.727173 662.931763,116.873062 663.688843,111.981911 
	C664.555420,106.384079 668.551758,102.992722 673.555969,103.859444 
	C678.022156,104.632965 680.694824,109.407448 679.674622,114.593971 
	C678.782898,119.127121 678.018188,123.685204 677.194397,128.231735 
	C676.234619,133.528732 673.085449,136.666840 668.852173,136.549606 
	C664.346008,136.424805 661.560730,133.219040 660.990601,127.018417 
z"/>
<path fill="#000000" opacity="1.000000" stroke="none" 
	d="
M579.749146,136.813995 
	C581.053833,132.802139 582.240479,129.168427 583.483826,125.554222 
	C584.337830,123.072006 585.780945,121.553787 588.725159,122.383438 
	C610.431580,128.500061 617.077332,147.069504 606.361755,163.495026 
	C605.309998,165.107208 604.421814,167.027435 601.814026,167.289673 
	C600.710083,165.131897 601.859741,163.155258 602.290833,161.183395 
	C604.439636,151.354828 599.466492,142.348999 589.997925,138.936752 
	C586.472107,137.666107 584.170715,138.032944 582.895264,142.293228 
	C578.939331,155.506912 574.665527,168.626495 570.425903,181.753799 
	C568.076965,189.026855 563.047119,192.067169 555.055298,191.292419 
	C547.291565,190.539764 540.217407,184.977036 539.246460,178.861176 
	C538.148499,171.945358 545.908325,165.731461 553.715149,167.282135 
	C558.671814,168.266708 562.994385,170.704193 567.974060,174.046478 
	C571.978943,161.413925 575.817078,149.307190 579.749146,136.813995 
z"/>
<path fill="#000000" opacity="1.000000" stroke="none" 
	d="
M468.251068,134.367996 
	C470.726074,131.358002 474.246155,130.904129 477.369263,129.204620 
	C476.339355,124.393204 473.597961,120.385849 471.700897,116.038193 
	C470.636353,113.598434 469.282898,111.274666 468.353027,108.788887 
	C467.297791,105.968033 464.268372,102.993759 466.795349,100.056015 
	C469.511200,96.898613 473.707275,96.145180 477.817413,96.702553 
	C486.028107,97.815979 491.593719,104.321014 490.645508,111.440826 
	C488.698486,112.131577 488.001648,110.537544 487.141602,109.418434 
	C485.295197,107.015907 482.760284,105.861832 479.905548,105.392288 
	C477.321991,104.967339 474.750122,105.461777 473.054901,107.513245 
	C471.428711,109.481110 473.364777,111.262489 474.150848,112.977119 
	C476.993866,119.178467 479.903442,125.350235 482.866577,131.495239 
	C484.553925,134.994461 484.555145,138.297226 481.836517,141.215179 
	C478.797150,144.477341 475.008514,146.051086 470.562103,144.925339 
	C465.905762,143.746429 464.972504,139.708664 468.251068,134.367996 
z"/>
<path fill="#000000" opacity="1.000000" stroke="none" 
	d="
M619.317200,243.308624 
	C632.993225,248.361069 640.444092,258.230560 640.979126,272.041779 
	C641.644897,289.225372 628.736389,302.484863 612.467041,303.363556 
	C595.361572,304.287354 581.327759,292.809235 579.716858,277.047119 
	C577.880493,259.079010 589.171814,244.633957 607.070129,242.012085 
	C611.134583,241.416687 615.011414,242.469131 619.317200,243.308624 
z"/>
<path fill="#000000" opacity="1.000000" stroke="none" 
	d="
M411.544922,264.905457 
	C414.372772,253.696457 421.612030,246.851517 431.731720,243.424118 
	C442.882477,239.647522 453.301849,242.331848 461.804962,250.273300 
	C471.040405,258.898682 474.442535,269.735657 470.430603,282.020782 
	C466.327881,294.583923 457.221588,302.405365 444.253540,303.595795 
	C422.640930,305.579803 406.018555,286.755280 411.544922,264.905457 
z"/>
</svg>