<svg preserveAspectRatio="xMidYMid meet" viewBox="219.172 23.227364185110666 222.94 185.81891348088533" xmlns="http://www.w3.org/2000/svg" version="1.0" style="max-height: 500px" width="222.94" height="185.81891348088533">

<g stroke="none" fill="#000000" transform="translate(0.000000,312.000000) scale(0.100000,-0.100000)">
<path d="M2761 2719 c-82 -14 -136 -43 -199 -106 -43 -43 -65 -76 -85 -126&#10;l-27 -67 0 -640 0 -641 653 3 652 3 58 27 c102 48 169 119 206 221 21 57 21&#10;70 21 697 l0 640 -612 -1 c-337 -1 -637 -5 -667 -10z m586 -300 c58 -30 92&#10;-73 77 -97 -18 -28 -47 -25 -83 7 -59 53 -120 53 -186 1 -40 -32 -64 -37 -83&#10;-18 -31 31 11 85 94 118 61 25 118 21 181 -11z m-37 -101 c49 -34 58 -53 36&#10;-77 -24 -26 -38 -26 -61 -1 -10 11 -28 20 -40 20 -12 0 -30 -9 -40 -20 -23&#10;-25 -37 -25 -59 -1 -22 24 -9 53 37 81 42 26 87 25 127 -2z m-42 -100 c17 -17&#10;15 -43 -4 -59 -31 -26 -70 25 -44 56 15 18 32 19 48 3z m318 -173 c81 -50 100&#10;-102 121 -316 19 -203 14 -239 -39 -279 -44 -33 -113 -37 -156 -11 -42 27 -72&#10;77 -72 121 0 54 -21 77 -78 82 -29 3 -61 14 -81 29 l-32 23 -48 -27 c-27 -15&#10;-64 -27 -82 -27 -50 0 -59 -11 -68 -72 -9 -65 -30 -101 -74 -128 -64 -39 -154&#10;-15 -189 51 -22 41 -22 78 -3 267 22 206 49 260 157 307 27 12 85 14 314 12&#10;l281 -2 49 -30z"/>
<path d="M2954 1986 c-56 -25 -71 -64 -89 -241 -9 -88 -19 -163 -22 -168 -11&#10;-17 20 -67 45 -74 45 -11 76 16 85 72 18 105 56 145 136 145 17 0 45 9 63 20&#10;42 26 104 26 146 0 18 -11 42 -20 55 -20 45 0 98 -22 114 -46 9 -14 21 -53 27&#10;-87 12 -69 40 -96 88 -84 25 7 56 57 45 74 -3 5 -13 80 -22 168 -14 139 -19&#10;165 -41 197 -14 20 -40 41 -56 47 -48 17 -535 14 -574 -3z m104 -45 c5 -32&#10;-23 -54 -49 -40 -19 10 -26 49 -12 63 4 4 19 6 33 4 18 -2 26 -10 28 -27z&#10;m426 23 c21 -8 20 -51 -1 -63 -24 -13 -53 4 -53 33 0 35 17 44 54 30z m-500&#10;-86 c13 -21 -2 -51 -26 -56 -16 -3 -48 23 -48 38 0 15 32 41 48 38 8 -2 20&#10;-11 26 -20z m148 -3 c8 -19 8 -28 -2 -40 -23 -28 -70 -12 -70 25 0 42 54 54&#10;72 15z m292 3 c14 -23 -3 -52 -32 -56 -29 -4 -51 40 -32 63 16 20 49 16 64 -7z&#10;m141 2 c18 -20 18 -21 -3 -43 -18 -17 -26 -19 -40 -11 -22 14 -27 41 -12 59&#10;17 20 34 19 55 -5z m-257 -32 c15 -15 16 -45 2 -53 -16 -10 -93 -12 -117 -4&#10;-25 9 -30 38 -11 57 7 7 35 12 63 12 28 0 56 -5 63 -12z m-253 -63 c0 -27 -3&#10;-30 -30 -30 -21 0 -31 5 -33 18 -6 33 6 49 35 45 24 -3 28 -8 28 -33z m440 0&#10;c0 -27 -3 -30 -30 -30 -21 0 -31 5 -33 18 -6 33 6 49 35 45 24 -3 28 -8 28&#10;-33z"/>
<path d="M4688 819 c-54 -16 -73 -42 -73 -101 0 -70 24 -88 119 -88 78 0 102&#10;-9 93 -35 -6 -14 -22 -16 -104 -14 l-98 2 0 -39 0 -39 121 1 c168 2 207 25&#10;174 104 -15 36 -45 49 -143 61 -93 12 -102 16 -86 35 8 10 37 14 110 14 l99 0&#10;-7 48 c-3 26 -7 49 -9 50 -7 10 -164 10 -196 1z"/>
<path d="M1085 812 c-39 -9 -54 -52 -54 -152 1 -92 17 -142 50 -151 40 -12&#10;226 -10 253 2 30 14 37 47 37 168 0 97 -5 116 -29 126 -25 10 -222 15 -257 7z&#10;m203 -108 c17 -5 16 -98 -2 -113 -9 -8 -43 -11 -93 -9 l-78 3 -3 49 c-2 27 1&#10;53 6 58 20 20 120 28 170 12z"/>
<path d="M2078 813 c-2 -5 -1 -75 2 -158 l5 -150 42 -3 41 -3 7 101 c8 100 17&#10;130 30 90 4 -12 26 -63 49 -113 l43 -92 52 3 51 4 0 113 c0 62 -3 133 -6 159&#10;-7 46 -7 46 -46 46 l-40 0 7 -97 c6 -86 5 -96 -8 -78 -8 11 -26 57 -41 103&#10;l-28 82 -78 0 c-43 0 -80 -3 -82 -7z"/>
<path d="M3138 813 c-16 -4 -18 -21 -18 -169 l0 -165 38 3 37 3 -3 79 c-4 116&#10;4 122 43 36 19 -41 35 -81 35 -87 0 -33 21 -6 50 65 18 42 35 82 39 87 3 6 8&#10;-30 11 -80 l5 -90 48 -3 47 -3 0 78 c0 43 -3 115 -7 161 l-6 82 -53 0 -54 0&#10;-31 -56 c-18 -30 -35 -52 -39 -47 -4 4 -15 32 -25 61 l-17 52 -41 -1 c-23 -1&#10;-50 -3 -59 -6z"/>
<path d="M3835 812 c-6 -4 -10 -74 -11 -170 l-1 -163 36 3 36 3 -4 95 c-3 86&#10;-2 93 13 81 9 -7 16 -17 16 -21 0 -5 14 -39 31 -77 l31 -68 43 90 c48 99 43&#10;102 50 -30 2 -27 4 -53 4 -57 1 -5 21 -8 46 -8 l45 0 0 108 c0 59 -3 131 -6&#10;160 l-7 52 -53 0 -53 0 -31 -55 c-17 -30 -33 -55 -35 -55 -2 0 -14 27 -26 60&#10;l-22 60 -46 0 c-25 0 -50 -4 -56 -8z"/>
<path d="M5305 813 c-86 -12 -120 -61 -120 -168 1 -116 38 -145 168 -131 100&#10;11 107 14 107 47 l0 29 -57 -7 c-32 -4 -76 -8 -98 -8 l-40 0 0 64 0 65 35 9&#10;c19 5 59 7 88 5 l52 -5 0 49 c0 44 -2 48 -24 48 -13 0 -36 2 -52 4 -16 2 -42&#10;2 -59 -1z"/>
<path d="M1487 803 l-48 -4 6 -137 c4 -75 8 -142 10 -148 2 -6 18 -11 37 -10&#10;31 1 33 4 38 41 l5 40 94 15 95 15 9 35 c9 35 5 125 -6 136 -19 19 -121 26&#10;-240 17z m117 -49 c11 -4 16 -19 16 -44 0 -40 -13 -50 -72 -50 -29 0 -29 1&#10;-32 67 -1 23 55 40 88 27z"/>
<path d="M1790 655 l0 -155 116 0 c116 0 116 0 110 23 -3 12 -6 30 -6 40 0 13&#10;-6 16 -22 13 -13 -3 -42 -7 -65 -10 -42 -6 -43 -6 -43 23 0 27 4 31 38 36 61&#10;11 64 13 60 47 -3 31 -5 33 -48 36 -64 4 -75 9 -60 27 8 9 36 15 83 17 69 3&#10;72 4 72 28 l0 25 -117 3 -118 3 0 -156z"/>
<path d="M2556 800 c-26 -5 -50 -19 -69 -40 -30 -33 -30 -34 -24 -129 8 -122&#10;13 -127 140 -136 135 -10 132 -12 132 65 l0 65 -57 3 -58 3 0 -41 c0 -39 -1&#10;-40 -34 -40 -42 0 -45 3 -52 77 -6 51 -4 60 16 78 18 16 35 19 96 19 l74 -1 0&#10;37 c0 35 -2 38 -37 44 -45 7 -75 6 -127 -4z"/>
<path d="M2860 801 l-35 -6 -7 -80 c-4 -44 -9 -106 -12 -138 l-6 -58 33 3 c25&#10;2 33 8 35 26 3 21 8 23 59 20 54 -3 57 -4 68 -37 13 -39 23 -45 52 -34 20 8&#10;20 8 -3 146 -12 76 -25 145 -28 153 -6 15 -85 18 -156 5z m93 -108 c2 -5 7&#10;-20 11 -35 6 -27 5 -28 -38 -28 -46 0 -47 2 -30 58 4 13 50 17 57 5z"/>
<path d="M3540 655 l0 -155 115 0 115 0 -6 28 c-3 15 -7 32 -9 38 -2 7 -21 8&#10;-61 3 -67 -9 -74 -6 -74 26 0 20 6 25 38 30 59 10 62 12 62 50 l0 35 -55 0&#10;c-42 0 -55 4 -55 15 0 17 24 24 100 27 52 3 55 5 58 31 l3 27 -115 0 -116 0 0&#10;-155z"/>
<path d="M4460 721 c0 -49 -3 -96 -6 -105 -7 -19 -94 -22 -112 -4 -8 8 -12 45&#10;-12 100 l0 88 -39 0 -38 0 -7 -99 c-10 -129 -3 -161 38 -189 46 -32 164 -31&#10;221 1 l40 23 3 74 c2 41 0 103 -3 138 l-7 62 -39 0 -39 0 0 -89z"/>
<path d="M4967 793 c-15 -14 -7 -61 11 -66 12 -2 22 -17 25 -37 10 -50 8 -130&#10;-3 -130 -5 0 -10 -18 -10 -40 l0 -41 68 3 67 3 3 43 c3 37 0 44 -18 49 -19 5&#10;-21 12 -18 67 3 55 5 61 26 64 19 3 22 9 22 48 l0 44 -83 0 c-46 0 -87 -3 -90&#10;-7z"/>
</g>
</svg>